<svg width="256" height="256" viewBox="0 0 256 256" fill="none" xmlns="http://www.w3.org/2000/svg">
<g clip-path="url(#clip0_412_2)">
<path d="M197.15 201.71L136 99.81V48H140C143.183 48 146.235 46.7357 148.485 44.4853C150.736 42.2348 152 39.1826 152 36C152 32.8174 150.736 29.7652 148.485 27.5147C146.235 25.2643 143.183 24 140 24H60.0002C56.8176 24 53.7653 25.2643 51.5149 27.5147C49.2645 29.7652 48.0002 32.8174 48.0002 36C48.0002 39.1826 49.2645 42.2348 51.5149 44.4853C53.7653 46.7357 56.8176 48 60.0002 48H64.0002V99.81L2.85019 201.71C1.02923 204.745 0.0462457 208.209 0.00159224 211.748C-0.0430612 215.287 0.852218 218.774 2.59602 221.854C4.33983 224.934 6.8697 227.496 9.92735 229.278C12.985 231.061 16.4609 232 20.0002 232H180C183.539 232 187.015 231.061 190.073 229.278C193.131 227.496 195.661 224.934 197.404 221.854C199.148 218.774 200.043 215.287 199.999 211.748C199.954 208.209 198.971 204.745 197.15 201.71ZM112 48V103.14C112.001 105.314 112.592 107.446 113.71 109.31L148.84 167.85C138.05 168.71 123.69 166.54 105.42 157.29C91.4202 150.21 77.9602 145.96 65.1502 144.53L86.2902 109.31C87.4085 107.446 87.9995 105.314 88.0002 103.14V48H112Z" fill="white"/>
<path d="M192.76 128V118.04H166.968V110.184L185.538 70.8603H195.022L176.452 110.184H192.76V94.7082H201.172V110.184H206.847V118.04H201.172V128H192.76ZM232.364 129.071C229.534 129.071 226.875 128.542 224.389 127.484C221.902 126.4 219.746 124.865 217.921 122.881C216.122 120.897 214.812 118.556 213.992 115.858L222.008 113.636C222.775 116.096 224.111 117.987 226.015 119.31C227.92 120.606 230.036 121.241 232.364 121.215C234.454 121.188 236.293 120.699 237.88 119.746C239.467 118.794 240.71 117.511 241.61 115.897C242.509 114.257 242.959 112.379 242.959 110.263C242.959 107.088 241.967 104.47 239.983 102.406C238.025 100.343 235.459 99.3111 232.285 99.3111C231.386 99.3111 230.46 99.4434 229.507 99.7079C228.581 99.9725 227.709 100.316 226.888 100.74L223 94.1923L243.157 76.3759L244.03 78.7567H216.254V70.8603H250.617V78.7567L233.872 94.8669L233.793 92.1687C237.391 92.1687 240.512 92.9755 243.157 94.5892C245.803 96.1764 247.84 98.3456 249.268 101.097C250.723 103.821 251.451 106.877 251.451 110.263C251.451 113.913 250.591 117.154 248.871 119.985C247.178 122.815 244.89 125.037 242.007 126.651C239.15 128.265 235.936 129.071 232.364 129.071Z" fill="white"/>
</g>
<defs>
<clipPath id="clip0_412_2">
<rect width="256" height="256" fill="white"/>
</clipPath>
</defs>
</svg>
