<svg width="322" height="38" viewBox="0 0 322 38" fill="none" xmlns="http://www.w3.org/2000/svg">
<path d="M280.676 38.0043L273.709 37.9492L273.765 30.2144L249.068 30.0493V15.4114L265.958 0H277.994L250.42 22.9294V23.2563L273.824 23.3113L273.936 12.6508H280.732L280.676 23.3113H283.822V30.2176H280.676V38.0043Z" fill="#202020"/>
<path d="M31.187 12.5958C29.9264 9.08112 27.1355 6.32376 20.4743 6.32376C15.1228 6.32376 9.45877 7.57299 9.45877 11.1362C9.45877 14.6994 15.215 15.3531 21.2608 15.3531C29.6204 15.3531 39.948 16.4341 39.6847 25.7871C39.4214 33.5187 33.8857 37.9492 20.8034 37.9492C7.72104 37.9492 1.68178 31.949 0 25.4084L6.77977 23.4084C7.61902 26.7062 11.3512 31.195 21.014 31.195C29.1037 31.195 32.171 29.5736 32.329 26.3825C32.329 22.9229 29.1431 21.897 23.6798 21.7319L18.4239 21.6251C10.1729 21.4633 1.99773 19.5183 1.99773 11.4631C1.99773 3.83826 9.43902 0.054985 20.5269 0.054985C30.1437 0.054985 35.7057 3.45961 38.648 10.5439L31.187 12.599V12.5958Z" fill="#202020"/>
<path d="M94.4002 0.323578L94.5089 18.4341C94.5089 25.1365 98.139 30.9231 105.893 30.9231C113.647 30.9231 116.945 24.7061 116.945 18.5959L117.053 0.323578H124.034V18.7577C124.034 28.4344 118.37 37.9492 105.781 37.9492C93.1924 37.9492 87.1432 28.0007 87.1432 18.2723V0.323578H94.4002Z" fill="#202020"/>
<path fill-rule="evenodd" clip-rule="evenodd" d="M137.257 26.0039H155.675L155.678 26.0006L160.075 37.5705H167.497L153.917 0.323578H139.127L125.492 37.5738H132.857L137.257 26.0039ZM153.368 19.1914H139.62L146.384 1.1359H146.66L153.368 19.1914Z" fill="#202020"/>
<path fill-rule="evenodd" clip-rule="evenodd" d="M191.834 0.216888C199.31 0.218628 205.41 6.27311 205.41 13.515C205.41 19.4601 201.395 24.4894 196.064 26.3794L206.177 37.5156H196.008L187.707 27.6772H178.387V37.5706H171.13V0.323687L191.831 0.216888H191.834ZM178.387 21.0848H190.62C194.8 21.0848 198.098 17.5701 198.098 13.5182C198.098 9.67993 194.796 6.4889 190.62 6.4889H178.387V21.0848Z" fill="#202020"/>
<path d="M243.785 0.323578H211.46V37.5187H243.785V30.5995H218.384V21.7869H243.236V15.5699H218.384V7.24286H243.785V0.323578Z" fill="#202020"/>
<path d="M319.736 0H288.433V6.71539L318.58 6.87721V7.09728L296.316 10.8417V19.3306C302.865 18.3597 315.062 17.1979 315.062 23.6414C315.062 26.4279 311.738 30.9588 303.497 30.9588C296.865 30.9588 293.62 27.1917 292.465 23.6964L285.284 25.389C287.453 33.5219 295.536 38.001 304.079 38.001C318.653 38.001 322 29.2662 322 25.7709C322 20.0912 317.906 14.3887 302.148 17.0102L302.197 16.7383L319.785 13.4858L319.736 0Z" fill="#202020"/>
<path fill-rule="evenodd" clip-rule="evenodd" d="M74.3372 34.0148C71.0833 36.4828 67.0082 37.9524 62.5912 37.9524C51.9674 37.9524 43.3215 29.4538 43.3215 19.0037C43.3215 8.55359 51.9674 0.054985 62.5912 0.054985C73.215 0.054985 81.8609 8.55683 81.8609 19.0037C81.8609 23.3458 80.3673 27.3518 77.8589 30.5511H81.8608V37.9493H74.3372V34.0148ZM50.8451 30.5509H74.3373V7.45324H50.8451V30.5509Z" fill="#202020"/>
</svg>
